<mxfile host="app.diagrams.net" modified="2023-08-21T09:18:28.643Z" agent="Mozilla/5.0 (Windows NT 10.0; Win64; x64) AppleWebKit/537.36 (KHTML, like Gecko) Chrome/116.0.0.0 Safari/537.36" version="21.6.8" etag="Ec8v_cORALbK2yDxWlzI" type="github">
  <diagram name="第 1 页" id="y2m71i1tQFDisF_dA_ET">
    <mxGraphModel>
      <root>
        <mxCell id="0" />
        <mxCell id="1" parent="0" />
      </root>
    </mxGraphModel>
  </diagram>
</mxfile>
